<svg xmlns="http://www.w3.org/2000/svg" viewBox="0 0 250 250" fill="none"><path d="M125 30L31.9 63.2l14.2 123.1L125 230l78.9-43.7 14.2-123.1L125 30z M125 30v22.2-.1V230l-78.9-43.7-14.2-123.1L125 30z" fill="#dd0031"/><path d="M125 30L31.9 63.2l14.2 123.1L125 230l78.9-43.7 14.2-123.1L125 30z" fill="#c3002f"/><path d="M125 52.1L66.8 182.6h21.7l11.7-29.2h49.4l11.7 29.2h21.7L125 52.1z" fill="#fff"/><path d="M125 52.1v101.3h24.8l11.7 29.2h21.7L125 52.1z" fill="#fff" opacity=".1"/><path d="M125 89.4L117.6 107H125v-17.6z"  fill="#dd0031"/><path d="M125 89.4v31.4h11.1L125 89.4z" fill="#dd0031" opacity=".1"/><path d="M125 120.8h-12s-3.4 8.7-3.4 8.8h15.4v-8.8z" fill="#dd0031"/><path d="M125 120.8v8.8h15.4l-3.4-8.8H125z" fill="#dd0031" opacity=".1"/></svg>