<svg xmlns="http://www.w3.org/2000/svg" viewBox="0 0 128 128"><rect width="128" height="128" rx="0" fill="#007acc"/><path fill="#fff" d="M19.5 60.8h17.1v56.4h19.5v-56.4h17.1v-15.3H19.5v15.3zM108.9 95.8c0-8.9-3.9-13.6-11.7-16.3l-10-3.3c-2.9-1-4.7-2.3-4.7-5.5 0-2.8 2.3-4.7 6.4-4.7 4.1 0 5.6 1.9 6.2 6.8l16.1-1.3c-1.3-10.8-9.1-17.7-22.3-17.7-12.7 0-23 7.2-23 19.3 0 10.3 6.1 14.8 13.9 17.5l9.5 3.3c3.6 1.3 5.3 3.1 5.3 5.9 0 3.1-2.9 5.3-7.5 5.3-5.3 0-8.1-2.9-8.8-8.2l-16.4 1.3c2 13.4 12 19.1 25.1 19.1 15 0 24.1-8.1 24.1-21.5z"/></svg>